<mxfile host="app.diagrams.net" modified="2023-04-11T04:28:05.495Z" agent="Mozilla/5.0 (Macintosh; Intel Mac OS X 10_15_7) AppleWebKit/537.36 (KHTML, like Gecko) Chrome/112.0.0.0 Safari/537.36" version="21.1.4" etag="vxBBO5geHQmJk0psWbaQ" type="github">
  <diagram name="第 1 页" id="T4l5YdtfBi07WJmN0s0r">
    <mxGraphModel>
      <root>
        <mxCell id="0" />
        <mxCell id="1" parent="0" />
      </root>
    </mxGraphModel>
  </diagram>
</mxfile>
